@startuml

title __TAGFILES's Class Diagram__\n

  package  {
    class JspClass {
        ~ jsp_service_method()
    }
  }
  

  package  {
    class JspClass {
        ~ jsp_service_method()
    }
  }
  

  package  {
    class JspClass {
        ~ jsp_service_method()
    }
  }
  

  JspClass -up-|> HttpJspPage
  JspClass -up-|> HttpJspPage
  JspClass -up-|> HttpJspPage


right footer


PlantUML diagram generated by SketchIt! (https://bitbucket.org/pmesmeur/sketch.it)
For more information about this tool, please contact philippe.mesmeur@gmail.com
endfooter

@enduml
